<svg width="17" height="17" viewBox="0 0 17 17" fill="none" xmlns="http://www.w3.org/2000/svg">
<path d="M2.40627 2.44922C4.03908 0.816406 5.987 0 8.25002 0C10.513 0 12.4466 0.816406 14.0508 2.44922C15.6836 4.05339 16.5 5.98698 16.5 8.25C16.5 10.513 15.6836 12.4609 14.0508 14.0938C12.4466 15.6979 10.513 16.5 8.25002 16.5C5.987 16.5 4.03908 15.6979 2.40627 14.0938C0.802104 12.4609 2.09808e-05 10.513 2.09808e-05 8.25C2.09808e-05 5.98698 0.802104 4.05339 2.40627 2.44922ZM13.1055 3.39453C11.7591 2.04818 10.1406 1.375 8.25002 1.375C6.3594 1.375 4.74091 2.04818 3.39455 3.39453C2.0482 4.74089 1.37502 6.35938 1.37502 8.25C1.37502 10.1406 2.0482 11.7591 3.39455 13.1055C4.74091 14.4518 6.3594 15.125 8.25002 15.125C10.1406 15.125 11.7591 14.4518 13.1055 13.1055C14.4518 11.7591 15.125 10.1406 15.125 8.25C15.125 6.35938 14.4518 4.74089 13.1055 3.39453ZM7.7344 2.27734C7.87763 2.13411 8.0495 2.0625 8.25002 2.0625C8.45054 2.0625 8.60809 2.13411 8.72268 2.27734C8.86591 2.39193 8.93752 2.54948 8.93752 2.75C8.93752 2.95052 8.86591 3.1224 8.72268 3.26562C8.60809 3.38021 8.45054 3.4375 8.25002 3.4375C8.0495 3.4375 7.87763 3.38021 7.7344 3.26562C7.61981 3.1224 7.56252 2.95052 7.56252 2.75C7.56252 2.54948 7.61981 2.39193 7.7344 2.27734ZM3.86721 3.91016C4.01044 3.76693 4.16799 3.69531 4.33986 3.69531C4.54039 3.69531 4.71226 3.76693 4.85549 3.91016C4.99872 4.02474 5.07033 4.18229 5.07033 4.38281C5.07033 4.55469 4.99872 4.71224 4.85549 4.85547C4.71226 4.9987 4.54039 5.07031 4.33986 5.07031C4.16799 5.07031 4.01044 4.9987 3.86721 4.85547C3.75263 4.71224 3.69533 4.55469 3.69533 4.38281C3.69533 4.18229 3.75263 4.02474 3.86721 3.91016ZM11.6446 3.86719L12.6328 4.85547L9.58205 7.90625C9.6107 8.02083 9.62502 8.13542 9.62502 8.25C9.62502 8.6224 9.48179 8.95182 9.19533 9.23828C8.93752 9.49609 8.62242 9.625 8.25002 9.625C7.87763 9.625 7.5482 9.49609 7.26174 9.23828C7.00393 8.95182 6.87502 8.6224 6.87502 8.25C6.87502 7.8776 7.00393 7.5625 7.26174 7.30469C7.5482 7.01823 7.87763 6.875 8.25002 6.875C8.3646 6.875 8.47919 6.88932 8.59377 6.91797L11.6446 3.86719ZM2.2344 7.77734C2.37763 7.63411 2.5495 7.5625 2.75002 7.5625C2.95054 7.5625 3.10809 7.63411 3.22268 7.77734C3.36591 7.89193 3.43752 8.04948 3.43752 8.25C3.43752 8.45052 3.36591 8.6224 3.22268 8.76562C3.10809 8.88021 2.95054 8.9375 2.75002 8.9375C2.5495 8.9375 2.37763 8.88021 2.2344 8.76562C2.11981 8.6224 2.06252 8.45052 2.06252 8.25C2.06252 8.04948 2.11981 7.89193 2.2344 7.77734ZM13.2344 7.77734C13.3776 7.63411 13.5495 7.5625 13.75 7.5625C13.9505 7.5625 14.1081 7.63411 14.2227 7.77734C14.3659 7.89193 14.4375 8.04948 14.4375 8.25C14.4375 8.45052 14.3659 8.6224 14.2227 8.76562C14.1081 8.88021 13.9505 8.9375 13.75 8.9375C13.5495 8.9375 13.3776 8.88021 13.2344 8.76562C13.1198 8.6224 13.0625 8.45052 13.0625 8.25C13.0625 8.04948 13.1198 7.89193 13.2344 7.77734ZM3.86721 11.6445C4.01044 11.5013 4.16799 11.4297 4.33986 11.4297C4.54039 11.4297 4.71226 11.5013 4.85549 11.6445C4.99872 11.7878 5.07033 11.9596 5.07033 12.1602C5.07033 12.332 4.99872 12.4896 4.85549 12.6328C4.71226 12.7474 4.54039 12.8047 4.33986 12.8047C4.16799 12.8047 4.01044 12.7474 3.86721 12.6328C3.75263 12.4896 3.69533 12.332 3.69533 12.1602C3.69533 11.9596 3.75263 11.7878 3.86721 11.6445ZM11.6446 11.6445C11.7878 11.5013 11.9453 11.4297 12.1172 11.4297C12.3177 11.4297 12.4753 11.5013 12.5899 11.6445C12.7331 11.7878 12.8047 11.9596 12.8047 12.1602C12.8047 12.332 12.7331 12.4896 12.5899 12.6328C12.4753 12.7474 12.3177 12.8047 12.1172 12.8047C11.9453 12.8047 11.7878 12.7474 11.6446 12.6328C11.5013 12.4896 11.4297 12.332 11.4297 12.1602C11.4297 11.9596 11.5013 11.7878 11.6446 11.6445Z" fill="#202224"/>
</svg>
